<svg width="236" height="63" viewBox="0 0 236 63" fill="none" xmlns="http://www.w3.org/2000/svg">
<path d="M38.6664 4.70025C39.8155 5.52892 41.138 5.86623 41.9923 6.79163C41.9746 7.52599 41.444 7.63946 41.0529 7.86966C36.1781 10.7392 31.3162 13.6316 26.4096 16.4457C25.2759 17.0959 24.884 17.8381 24.9347 19.163C25.069 22.6687 25.0139 26.1819 25.0221 29.6921C25.0233 30.2185 25.0762 30.7718 24.6808 31.2221C24.2248 31.4904 23.8851 31.1739 23.5417 30.9733C20.4561 29.1713 17.3934 27.3293 14.2848 25.5684C13.2818 25.0002 12.8492 24.2816 12.8587 23.1353C12.8913 19.2041 12.8842 15.2721 12.8418 11.341C12.8308 10.3253 13.2113 9.67216 14.0767 9.17039C19.1245 6.24382 24.1635 3.30176 29.1884 0.336157C29.9503 -0.113468 30.577 -0.114833 31.3348 0.348851C33.7216 1.80931 36.1436 3.21222 38.6664 4.70025Z" fill="#AC0A01"/>
<path d="M1.3284 38.7811C6.30882 41.7398 11.1794 44.6203 16.0315 47.5317C16.9801 48.1009 17.7857 48.2385 18.8147 47.5954C21.3898 45.9861 24.0421 44.4999 26.6662 42.9693C27.3766 42.5549 28.0403 42.025 28.8784 41.9557C29.5913 42.4542 29.4133 43.1668 29.4173 43.7874C29.4389 47.1243 29.3841 50.4623 29.4449 53.7982C29.4659 54.9537 29.0656 55.681 28.0784 56.2573C24.9403 58.0891 21.8172 59.9485 18.7312 61.8661C17.7951 62.4479 17.0717 62.4357 16.1215 61.8724C11.2534 58.9869 6.35568 56.1507 1.43769 53.351C0.511233 52.8236 -0.00737365 52.2263 7.92329e-05 51.1242C0.0254794 47.3702 -0.0142261 43.6158 0.0110266 39.8619C0.0157443 39.1602 -0.167872 38.0644 1.3284 38.7811Z" fill="#AC0A01"/>
<path d="M46.7951 56.2527C46.7969 51.7277 46.7433 47.3785 46.8307 43.0321C46.8605 41.5495 46.4394 40.6458 45.0845 39.9094C41.9996 38.2327 39.0135 36.374 35.9935 34.5787C35.5434 34.3111 34.9976 34.1503 34.7543 33.619C34.6875 32.9901 35.1899 32.8121 35.5817 32.5809C38.607 30.7953 41.6575 29.0518 44.6592 27.2276C45.5512 26.6855 46.2574 26.7377 47.1275 27.249C50.6692 29.3307 54.2323 31.3767 57.8144 33.3883C58.7645 33.9218 59.1218 34.6142 59.1149 35.693C59.0804 41.0535 59.1032 46.4143 59.1108 51.775C59.1119 52.5674 59.0863 53.3212 58.283 53.7973C54.8007 55.8609 51.3284 57.9414 47.8447 60.0027C47.6619 60.1108 47.408 60.0987 47.0615 60.1675C46.5893 58.897 46.8714 57.6447 46.7951 56.2527Z" fill="#AC0A01"/>
<path d="M45.3693 9.83907C45.4255 14.0204 45.4403 18.0686 45.4623 22.1168C45.4665 22.8807 45.2582 23.4949 44.5469 23.9153C39.2689 27.035 34.0013 30.1721 28.7253 33.2953C28.5853 33.3782 28.3883 33.3648 28.2278 33.3945C27.6604 33.0852 27.8157 32.5551 27.8141 32.1132C27.8006 28.2423 27.8347 24.371 27.7906 20.5005C27.779 19.4883 28.1057 18.885 29.0063 18.3679C33.8593 15.5817 38.6669 12.7165 43.511 9.91459C44.0366 9.6106 44.6192 8.80156 45.3693 9.83907Z" fill="#AC0A01"/>
<path d="M5.07953 37.6208C3.43888 36.5772 1.71693 35.8948 0.0402832 34.4809C2.19122 33.1872 4.1012 32.022 6.02772 30.8848C7.61726 29.9465 9.23224 29.0514 10.824 28.1167C11.4671 27.7391 12.0341 27.5011 12.7973 27.9514C18.0781 31.0672 23.3834 34.1414 28.6762 37.2369C28.8712 37.3509 29.0182 37.5469 29.139 37.6594C29.2021 38.1914 28.8841 38.3738 28.576 38.5532C25.232 40.5008 21.8743 42.4252 18.5498 44.4053C17.6889 44.9181 17.0381 44.7148 16.2571 44.2438C12.586 42.03 8.88473 39.8659 5.07953 37.6208Z" fill="#AC0A01"/>
<path d="M44.0946 60.1208C44.0368 60.9212 44.2329 61.6025 43.7286 62.197C42.8679 62.3801 42.3161 61.713 41.6853 61.3483C38.9023 59.7394 36.157 58.0657 33.3841 56.4393C32.6192 55.9906 32.0834 55.49 32.0884 54.4976C32.1185 48.6029 32.1093 42.7081 32.1222 36.8133C32.1227 36.5847 32.2141 36.3562 32.2534 36.1726C32.7431 35.8431 33.1037 36.1076 33.4567 36.3078C36.6662 38.1275 39.8532 39.9883 43.0895 41.7591C44.112 42.3185 44.0347 43.1817 44.0395 44.0559C44.0691 49.3553 44.0786 54.6547 44.0946 60.1208Z" fill="#AC0A01"/>
<path d="M85.9858 44.2437L84.1226 38.1265H74.7534L72.8901 44.2437H67.019L76.0894 18.439H82.7515L91.8569 44.2437H85.9858ZM82.8218 33.5562L80.9585 27.5796C80.8413 27.1812 80.6831 26.6714 80.4839 26.0503C80.2964 25.4175 80.103 24.7788 79.9038 24.1343C79.7163 23.478 79.564 22.9097 79.4468 22.4292C79.3296 22.9097 79.1655 23.5073 78.9546 24.2222C78.7554 24.9253 78.562 25.5933 78.3745 26.2261C78.187 26.8589 78.0522 27.3101 77.9702 27.5796L76.1245 33.5562H82.8218ZM108.398 38.4077C108.398 39.7437 108.082 40.8745 107.449 41.8003C106.828 42.7144 105.896 43.4116 104.654 43.8921C103.412 44.3608 101.865 44.5952 100.013 44.5952C98.6421 44.5952 97.4644 44.5073 96.48 44.3315C95.5073 44.1558 94.5229 43.8628 93.5269 43.4526V39.0229C94.5933 39.5034 95.7358 39.9019 96.9546 40.2183C98.1851 40.5229 99.2632 40.6753 100.189 40.6753C101.232 40.6753 101.976 40.5229 102.421 40.2183C102.878 39.9019 103.107 39.4917 103.107 38.9878C103.107 38.6597 103.013 38.3667 102.826 38.1089C102.65 37.8394 102.263 37.5405 101.666 37.2124C101.068 36.8726 100.13 36.4331 98.853 35.894C97.6226 35.3784 96.6089 34.8569 95.812 34.3296C95.0269 33.8022 94.4409 33.1812 94.0542 32.4663C93.6792 31.7397 93.4917 30.8198 93.4917 29.7065C93.4917 27.8901 94.1948 26.5249 95.6011 25.6108C97.019 24.6851 98.9116 24.2222 101.279 24.2222C102.498 24.2222 103.658 24.3452 104.759 24.5913C105.873 24.8374 107.015 25.23 108.187 25.769L106.57 29.6362C105.597 29.2144 104.677 28.8687 103.81 28.5991C102.955 28.3296 102.082 28.1948 101.191 28.1948C100.406 28.1948 99.814 28.3003 99.4155 28.5112C99.0171 28.7222 98.8179 29.0444 98.8179 29.478C98.8179 29.7944 98.9175 30.0757 99.1167 30.3218C99.3276 30.5679 99.7261 30.8433 100.312 31.1479C100.91 31.4409 101.783 31.8218 102.931 32.2905C104.044 32.7476 105.011 33.228 105.832 33.7319C106.652 34.2241 107.285 34.8394 107.73 35.5776C108.175 36.3042 108.398 37.2476 108.398 38.4077ZM126.292 38.4077C126.292 39.7437 125.976 40.8745 125.343 41.8003C124.722 42.7144 123.791 43.4116 122.548 43.8921C121.306 44.3608 119.759 44.5952 117.908 44.5952C116.537 44.5952 115.359 44.5073 114.375 44.3315C113.402 44.1558 112.417 43.8628 111.421 43.4526V39.0229C112.488 39.5034 113.63 39.9019 114.849 40.2183C116.08 40.5229 117.158 40.6753 118.083 40.6753C119.126 40.6753 119.871 40.5229 120.316 40.2183C120.773 39.9019 121.001 39.4917 121.001 38.9878C121.001 38.6597 120.908 38.3667 120.72 38.1089C120.544 37.8394 120.158 37.5405 119.56 37.2124C118.962 36.8726 118.025 36.4331 116.748 35.894C115.517 35.3784 114.503 34.8569 113.707 34.3296C112.921 33.8022 112.335 33.1812 111.949 32.4663C111.574 31.7397 111.386 30.8198 111.386 29.7065C111.386 27.8901 112.089 26.5249 113.496 25.6108C114.914 24.6851 116.806 24.2222 119.173 24.2222C120.392 24.2222 121.552 24.3452 122.654 24.5913C123.767 24.8374 124.91 25.23 126.082 25.769L124.464 29.6362C123.492 29.2144 122.572 28.8687 121.705 28.5991C120.849 28.3296 119.976 28.1948 119.085 28.1948C118.3 28.1948 117.708 28.3003 117.31 28.5112C116.912 28.7222 116.712 29.0444 116.712 29.478C116.712 29.7944 116.812 30.0757 117.011 30.3218C117.222 30.5679 117.621 30.8433 118.207 31.1479C118.804 31.4409 119.677 31.8218 120.826 32.2905C121.939 32.7476 122.906 33.228 123.726 33.7319C124.546 34.2241 125.179 34.8394 125.625 35.5776C126.07 36.3042 126.292 37.2476 126.292 38.4077ZM138.58 24.2222C140.396 24.2222 141.96 24.5737 143.273 25.2769C144.585 25.9683 145.599 26.9761 146.314 28.3003C147.029 29.6245 147.386 31.2417 147.386 33.1519V35.7534H134.712C134.771 37.2651 135.222 38.4546 136.066 39.3218C136.921 40.1772 138.105 40.605 139.617 40.605C140.871 40.605 142.019 40.4761 143.062 40.2183C144.105 39.9604 145.177 39.5737 146.279 39.0581V43.2065C145.306 43.687 144.287 44.0386 143.22 44.2612C142.166 44.4839 140.882 44.5952 139.371 44.5952C137.402 44.5952 135.656 44.2319 134.132 43.5054C132.621 42.7788 131.431 41.6714 130.564 40.1831C129.708 38.6948 129.281 36.8198 129.281 34.5581C129.281 32.2612 129.667 30.3511 130.441 28.8276C131.226 27.2925 132.316 26.144 133.71 25.3823C135.105 24.6089 136.728 24.2222 138.58 24.2222ZM138.615 28.0366C137.572 28.0366 136.705 28.3706 136.013 29.0386C135.333 29.7065 134.941 30.7554 134.835 32.1851H142.359C142.347 31.3882 142.201 30.6792 141.919 30.0581C141.65 29.437 141.24 28.9448 140.689 28.5815C140.15 28.2183 139.458 28.0366 138.615 28.0366ZM174.826 24.2222C177.052 24.2222 178.734 24.7964 179.871 25.9448C181.019 27.0815 181.593 28.9097 181.593 31.4292V44.2437H176.214V32.7651C176.214 31.3589 175.974 30.2983 175.494 29.5835C175.013 28.8687 174.269 28.5112 173.261 28.5112C171.843 28.5112 170.835 29.021 170.238 30.0405C169.64 31.0483 169.341 32.4956 169.341 34.3823V44.2437H163.98V32.7651C163.98 31.8276 163.875 31.0425 163.664 30.4097C163.453 29.7769 163.13 29.3022 162.697 28.9858C162.263 28.6694 161.707 28.5112 161.027 28.5112C160.031 28.5112 159.246 28.7632 158.671 29.2671C158.109 29.7593 157.705 30.4917 157.458 31.4644C157.224 32.4253 157.107 33.603 157.107 34.9976V44.2437H151.746V24.5913H155.841L156.562 27.105H156.861C157.259 26.4253 157.757 25.8745 158.355 25.4526C158.964 25.0308 159.632 24.7202 160.359 24.521C161.085 24.3218 161.824 24.2222 162.574 24.2222C164.015 24.2222 165.234 24.4565 166.23 24.9253C167.238 25.394 168.011 26.1206 168.55 27.105H169.025C169.611 26.0972 170.437 25.3647 171.503 24.9077C172.582 24.4507 173.689 24.2222 174.826 24.2222ZM192.474 16.8921V23.2554C192.474 23.9937 192.451 24.7261 192.404 25.4526C192.369 26.1792 192.322 26.7417 192.263 27.1401H192.474C192.99 26.3315 193.693 25.646 194.583 25.0835C195.474 24.5093 196.628 24.2222 198.046 24.2222C200.25 24.2222 202.037 25.0835 203.408 26.8062C204.779 28.5288 205.464 31.0542 205.464 34.3823C205.464 36.6206 205.148 38.5015 204.515 40.0249C203.882 41.5366 202.998 42.6792 201.861 43.4526C200.724 44.2144 199.406 44.5952 197.906 44.5952C196.464 44.5952 195.328 44.3374 194.496 43.8218C193.664 43.3062 192.99 42.7261 192.474 42.0815H192.105L191.208 44.2437H187.113V16.8921H192.474ZM196.324 28.5112C195.386 28.5112 194.642 28.7046 194.091 29.0913C193.541 29.478 193.136 30.0581 192.878 30.8315C192.632 31.605 192.498 32.5835 192.474 33.7671V34.3472C192.474 36.2573 192.755 37.7222 193.318 38.7417C193.88 39.7495 194.906 40.2534 196.394 40.2534C197.496 40.2534 198.369 39.7437 199.013 38.7241C199.669 37.7046 199.998 36.2339 199.998 34.312C199.998 32.3901 199.669 30.9429 199.013 29.9702C198.357 28.9976 197.46 28.5112 196.324 28.5112ZM215.255 44.2437H209.894V16.8921H215.255V44.2437ZM231.867 24.2222C232.136 24.2222 232.447 24.2397 232.798 24.2749C233.162 24.2983 233.455 24.3335 233.677 24.3804L233.273 29.4077C233.097 29.3491 232.845 29.3081 232.517 29.2847C232.201 29.2495 231.925 29.2319 231.691 29.2319C231 29.2319 230.326 29.3198 229.669 29.4956C229.025 29.6714 228.445 29.9585 227.929 30.3569C227.414 30.7437 227.003 31.2593 226.699 31.9038C226.406 32.5366 226.259 33.3159 226.259 34.2417V44.2437H220.898V24.5913H224.958L225.75 27.896H226.013C226.4 27.228 226.88 26.6187 227.455 26.0679C228.041 25.5054 228.703 25.0601 229.441 24.7319C230.191 24.3921 231 24.2222 231.867 24.2222Z" fill="#AC0A01"/>
</svg>
