<svg width="224" height="63" viewBox="0 0 224 63" fill="none" xmlns="http://www.w3.org/2000/svg">
<path d="M38.6664 4.70025C39.8155 5.52892 41.138 5.86623 41.9923 6.79163C41.9746 7.52599 41.444 7.63946 41.0529 7.86966C36.1781 10.7392 31.3162 13.6316 26.4096 16.4457C25.2759 17.0959 24.884 17.8381 24.9347 19.163C25.069 22.6687 25.0139 26.1819 25.0221 29.6921C25.0233 30.2185 25.0762 30.7718 24.6808 31.2221C24.2248 31.4904 23.8851 31.1739 23.5417 30.9733C20.4561 29.1713 17.3934 27.3293 14.2848 25.5684C13.2818 25.0002 12.8492 24.2816 12.8587 23.1353C12.8913 19.2041 12.8842 15.2721 12.8418 11.341C12.8308 10.3253 13.2113 9.67216 14.0767 9.17039C19.1245 6.24382 24.1635 3.30176 29.1884 0.336157C29.9503 -0.113468 30.577 -0.114833 31.3348 0.348851C33.7216 1.80931 36.1436 3.21222 38.6664 4.70025Z" fill="#AC0A01"/>
<path d="M1.3284 38.7811C6.30882 41.7398 11.1794 44.6203 16.0315 47.5317C16.9801 48.1009 17.7857 48.2385 18.8147 47.5954C21.3898 45.9861 24.0421 44.4999 26.6662 42.9693C27.3766 42.5549 28.0403 42.025 28.8784 41.9557C29.5913 42.4542 29.4133 43.1668 29.4173 43.7874C29.4389 47.1243 29.3841 50.4623 29.4449 53.7982C29.4659 54.9537 29.0656 55.681 28.0784 56.2573C24.9403 58.0891 21.8172 59.9485 18.7312 61.8661C17.7951 62.4479 17.0717 62.4357 16.1215 61.8724C11.2534 58.9869 6.35568 56.1507 1.43769 53.351C0.511233 52.8236 -0.00737365 52.2263 7.92329e-05 51.1242C0.0254794 47.3702 -0.0142261 43.6158 0.0110266 39.8619C0.0157443 39.1602 -0.167872 38.0644 1.3284 38.7811Z" fill="#AC0A01"/>
<path d="M46.7951 56.2527C46.7969 51.7277 46.7433 47.3785 46.8307 43.0321C46.8605 41.5495 46.4394 40.6458 45.0845 39.9094C41.9996 38.2327 39.0135 36.374 35.9935 34.5787C35.5434 34.3111 34.9976 34.1503 34.7543 33.619C34.6875 32.9901 35.1899 32.8121 35.5817 32.5809C38.607 30.7953 41.6575 29.0518 44.6592 27.2276C45.5512 26.6855 46.2574 26.7377 47.1275 27.249C50.6692 29.3307 54.2323 31.3767 57.8144 33.3883C58.7645 33.9218 59.1218 34.6142 59.1149 35.693C59.0804 41.0535 59.1032 46.4143 59.1108 51.775C59.1119 52.5674 59.0863 53.3212 58.283 53.7973C54.8007 55.8609 51.3284 57.9414 47.8447 60.0027C47.6619 60.1108 47.408 60.0987 47.0615 60.1675C46.5893 58.897 46.8714 57.6447 46.7951 56.2527Z" fill="#AC0A01"/>
<path d="M179.49 45.2943C178.892 42.282 179.265 39.3619 179.153 36.4536C179.116 35.5019 179.194 34.5385 179.077 33.5984C178.774 31.181 177.723 30.1718 175.725 30.2463C173.612 30.325 171.919 31.827 171.848 33.9262C171.748 36.9016 171.836 39.8829 171.783 42.8606C171.768 43.7568 172.23 45.0083 171.094 45.4073C169.817 45.856 168.372 45.8073 167.052 45.4102C166.302 45.1845 166.427 44.3367 166.423 43.6951C166.403 40.5973 166.411 37.4993 166.395 34.4014C166.379 31.3384 165.529 30.2106 163.263 30.2062C160.885 30.2016 159.08 32.0159 159.035 34.5778C158.983 37.5557 158.934 40.5385 159.05 43.5127C159.117 45.2182 158.433 45.7848 156.856 45.6107C156.502 45.5717 156.137 45.5665 155.784 45.6064C154.211 45.7845 153.72 45.0746 153.738 43.5369C153.798 38.3547 153.779 33.1708 153.707 27.9886C153.687 26.5791 154.188 26.0248 155.574 26.1322C156.974 26.2409 158.722 25.5693 158.989 28.0596C163.188 25.0436 167.159 24.6321 170.853 28.6266C171.574 28.5365 171.871 27.8667 172.38 27.4925C174.937 25.6095 177.686 25.193 180.635 26.4119C183.393 27.5512 184.275 29.9311 184.362 32.6084C184.486 36.4171 184.37 40.2331 184.4 44.0457C184.409 45.1901 183.944 45.7009 182.804 45.6211C181.741 45.5466 180.658 45.7658 179.49 45.2943Z" fill="#AC0A01"/>
<path d="M89.7499 44.5536C87.8442 39.5086 87.8442 39.5087 82.5046 39.5207C81.0748 39.5239 79.64 39.6007 78.2165 39.5067C76.915 39.4208 76.1963 39.9548 75.8711 41.1652C75.7789 41.5084 75.6241 41.8348 75.498 42.169C74.1001 45.8744 74.102 45.8402 70.1358 45.6222C68.8016 45.5488 68.4451 45.0979 68.9583 43.8426C70.603 39.8194 72.2036 35.7781 73.8215 31.7439C75.4174 27.7647 77.0445 23.7976 78.5888 19.7985C78.9956 18.7452 79.5985 18.2992 80.7107 18.3221C86.1407 18.4341 84.9703 17.5594 86.9483 22.4413C89.7871 29.4482 92.5382 36.4906 95.3389 43.513C96.1067 45.4382 96.01 45.7011 93.8727 45.5835C92.4994 45.508 90.839 46.3871 89.7499 44.5536ZM80.7788 28.0486C79.9524 30.3022 78.8551 32.4676 78.3359 34.924C80.9989 34.924 83.4465 34.924 86.2373 34.924C84.8879 31.4076 83.6432 28.1641 82.2165 24.4464C81.6278 25.9319 81.2581 26.8649 80.7788 28.0486Z" fill="#AC0A01"/>
<path d="M187.818 19.4762C187.69 17.9018 188.352 17.4103 189.721 17.4626C193.477 17.606 193.269 16.5931 193.288 20.9189C193.297 23.115 193.289 25.3111 193.289 27.8167C198.464 24.6807 203.072 24.8136 206.597 29.7768C209.268 33.538 208.726 39.7162 205.811 43.1679C203.078 46.4047 199.134 46.7235 193.272 44.1818C192.55 45.4572 189.518 46.2126 188.346 45.3915C187.634 44.8925 187.83 44.1095 187.828 43.4194C187.816 35.4954 187.818 27.5713 187.818 19.4762ZM193.43 38.2137C194.529 41.1132 196.777 42.3543 199.4 41.5087C202.109 40.6353 203.473 37.3104 202.523 33.8928C201.748 31.1032 200.11 29.9554 197.267 30.2094C194.987 30.4131 193.379 32.2428 193.251 34.8891C193.202 35.8938 193.327 36.9069 193.43 38.2137Z" fill="#AC0A01"/>
<path d="M45.3693 9.83907C45.4255 14.0204 45.4403 18.0686 45.4623 22.1168C45.4665 22.8807 45.2582 23.4949 44.5469 23.9153C39.2689 27.035 34.0013 30.1721 28.7253 33.2953C28.5853 33.3782 28.3883 33.3648 28.2278 33.3945C27.6604 33.0852 27.8157 32.5551 27.8141 32.1132C27.8006 28.2423 27.8347 24.371 27.7906 20.5005C27.779 19.4883 28.1057 18.885 29.0063 18.3679C33.8593 15.5817 38.6669 12.7165 43.511 9.91459C44.0366 9.6106 44.6192 8.80156 45.3693 9.83907Z" fill="#AC0A01"/>
<path d="M5.07953 37.6208C3.43888 36.5772 1.71693 35.8948 0.0402832 34.4809C2.19122 33.1872 4.1012 32.022 6.02772 30.8848C7.61726 29.9465 9.23224 29.0514 10.824 28.1167C11.4671 27.7391 12.0341 27.5011 12.7973 27.9514C18.0781 31.0672 23.3834 34.1414 28.6762 37.2369C28.8712 37.3509 29.0182 37.5469 29.139 37.6594C29.2021 38.1914 28.8841 38.3738 28.576 38.5532C25.232 40.5008 21.8743 42.4252 18.5498 44.4053C17.6889 44.9181 17.0381 44.7148 16.2571 44.2438C12.586 42.03 8.88473 39.8659 5.07953 37.6208Z" fill="#AC0A01"/>
<path d="M141.014 37.7372C139.726 37.8078 138.59 37.5576 137.495 37.9216C137.75 40.2933 139.486 41.637 142.403 41.8504C144.833 42.0283 147.109 41.3298 149.368 40.658C150.716 43.2081 150.162 44.7397 147.605 45.4104C144.501 46.2243 141.346 46.4015 138.26 45.3969C133.144 43.7314 130.606 38.4984 132.045 32.7985C133.248 28.0308 138.156 25.0474 143.262 25.8257C149.52 26.7794 151.266 31.6053 151.105 36.3895C151.067 37.547 150.338 37.7276 149.415 37.7275C146.673 37.7271 143.931 37.7337 141.014 37.7372ZM139.146 33.9962C140.991 33.9921 142.835 33.9788 144.679 33.9874C145.767 33.9925 146.013 33.514 145.687 32.5127C145.058 30.5802 143.544 29.6438 141.209 29.8304C138.854 30.0186 137.61 31.2388 137.337 33.6637C137.469 33.7441 137.607 33.8852 137.763 33.9111C138.113 33.969 138.473 33.9695 139.146 33.9962Z" fill="#AC0A01"/>
<path d="M44.0946 60.1208C44.0368 60.9212 44.2329 61.6025 43.7286 62.197C42.8679 62.3801 42.3161 61.713 41.6853 61.3483C38.9023 59.7394 36.157 58.0657 33.3841 56.4393C32.6192 55.9906 32.0834 55.49 32.0884 54.4976C32.1185 48.6029 32.1093 42.7081 32.1222 36.8133C32.1227 36.5847 32.2141 36.3562 32.2534 36.1726C32.7431 35.8431 33.1037 36.1076 33.4567 36.3078C36.6662 38.1275 39.8532 39.9883 43.0895 41.7591C44.112 42.3185 44.0347 43.1817 44.0395 44.0559C44.0691 49.3553 44.0786 54.6547 44.0946 60.1208Z" fill="#AC0A01"/>
<path d="M124.596 45.7748C121.943 46.1483 119.467 46.1359 117.018 45.3968C113.959 44.4737 113.629 43.7957 114.862 40.4717C116.142 40.8441 117.434 41.2215 118.727 41.5967C120.069 41.986 121.441 41.9582 122.807 41.827C123.746 41.7367 124.611 41.3748 124.731 40.2994C124.846 39.2828 124.08 38.8164 123.257 38.5377C121.566 37.9655 119.823 37.5317 118.163 36.8835C115.342 35.7817 114.017 33.9093 114.213 31.5652C114.441 28.8492 116.112 26.9604 118.939 26.1844C121.237 25.5536 123.531 25.6789 125.842 26.108C128.904 26.6765 129.481 27.6564 128.519 30.9015C127.207 30.9724 126.039 30.257 124.759 30.0779C123.626 29.9195 122.502 29.8029 121.383 29.9694C120.559 30.0921 119.68 30.3523 119.596 31.4101C119.522 32.3516 120.218 32.8021 120.961 33.0776C121.907 33.4284 122.899 33.6556 123.863 33.961C124.826 34.266 125.819 34.5179 126.73 34.9404C129.198 36.0852 130.426 37.9121 130.195 40.242C129.944 42.7778 128.615 44.5627 126.124 45.3655C125.672 45.511 125.206 45.6111 124.596 45.7748Z" fill="#AC0A01"/>
<path d="M102.699 32.7146C104.661 33.4152 106.541 33.9809 108.371 34.6752C111.488 35.858 112.609 37.4217 112.475 40.1949C112.351 42.7499 110.591 44.8263 107.755 45.575C104.744 46.37 101.731 46.1533 98.7711 45.256C96.3801 44.5311 96.1822 44.1485 96.6844 41.648C96.7638 41.2527 96.9019 40.8692 97.042 40.378C98.4947 40.81 99.8378 41.2343 101.195 41.6062C102.652 42.0053 104.142 42.061 105.615 41.7397C106.403 41.568 107.095 41.1086 107.144 40.2087C107.188 39.3849 106.585 38.887 105.888 38.6459C104.259 38.0824 102.588 37.6399 100.96 37.0729C97.8141 35.9769 96.3789 34.0894 96.5351 31.3621C96.6841 28.7599 98.5453 26.8221 101.569 26.0776C103.698 25.5534 105.814 25.6852 107.945 26.0708C111.3 26.678 111.723 27.3606 110.734 30.8544C109.413 30.9823 108.248 30.2301 106.966 30.0724C105.776 29.926 104.591 29.7669 103.418 30.0341C101.76 30.4116 101.516 31.2536 102.699 32.7146Z" fill="#AC0A01"/>
<path d="M216.493 40.5158C216.488 41.111 216.48 41.5284 216.48 41.9458C216.477 45.8606 216.478 45.8167 212.617 45.6308C211.337 45.5692 211.01 45.0048 211.007 43.8488C210.998 38.3643 210.949 32.8797 210.886 27.3955C210.877 26.5767 211.16 26.1488 211.996 26.147C212.891 26.145 213.79 26.2016 214.678 26.1302C216.024 26.0221 215.746 27.3393 216.376 28.0036C217.842 27.2825 219.159 26.2517 220.833 25.9219C222.314 25.6302 222.951 26.0209 222.996 27.5663C223.074 30.2379 223.102 30.2582 220.546 30.7153C217.462 31.2667 216.458 32.4967 216.479 35.687C216.489 37.2373 216.49 38.7877 216.493 40.5158Z" fill="#AC0A01"/>
</svg>
